<svg xmlns="http://www.w3.org/2000/svg" viewBox="0 0 800 500" width="800" height="500" role="img" aria-label="Sample project placeholder: REST API response">
  <defs>
    <linearGradient id="bg2" x1="0" y1="0" x2="1" y2="1">
      <stop offset="0%" stop-color="#2B3F55"/>
      <stop offset="100%" stop-color="#1F2C3D"/>
    </linearGradient>
  </defs>
  <rect width="800" height="500" fill="url(#bg2)"/>

  <rect x="60" y="58" width="680" height="384" rx="12" fill="#27374D" fill-opacity="0.4" stroke="#DDE6ED" stroke-opacity="0.14" stroke-width="2"/>
  <rect x="60" y="58" width="680" height="42" rx="12" fill="#27374D" fill-opacity="0.45"/>
  <circle cx="88" cy="79" r="6" fill="#DDE6ED" fill-opacity="0.25"/>
  <circle cx="110" cy="79" r="6" fill="#DDE6ED" fill-opacity="0.18"/>
  <circle cx="132" cy="79" r="6" fill="#DDE6ED" fill-opacity="0.12"/>

  <!-- Code lines, varying widths like real source -->
  <g fill="#DDE6ED">
    <rect x="96" y="132" width="120" height="11" rx="5" fill-opacity="0.42"/>
    <rect x="228" y="132" width="196" height="11" rx="5" fill-opacity="0.2"/>

    <rect x="112" y="164" width="86" height="11" rx="5" fill-opacity="0.42"/>
    <rect x="210" y="164" width="150" height="11" rx="5" fill-opacity="0.2"/>

    <rect x="112" y="196" width="140" height="11" rx="5" fill-opacity="0.42"/>
    <rect x="264" y="196" width="92" height="11" rx="5" fill-opacity="0.2"/>

    <rect x="128" y="228" width="104" height="11" rx="5" fill-opacity="0.42"/>
    <rect x="244" y="228" width="176" height="11" rx="5" fill-opacity="0.2"/>

    <rect x="128" y="260" width="72" height="11" rx="5" fill-opacity="0.42"/>
    <rect x="212" y="260" width="130" height="11" rx="5" fill-opacity="0.2"/>

    <rect x="112" y="292" width="118" height="11" rx="5" fill-opacity="0.42"/>

    <rect x="96" y="324" width="96" height="11" rx="5" fill-opacity="0.42"/>
  </g>

  <!-- Status pills on the right -->
  <g fill="#DDE6ED">
    <rect x="556" y="128" width="140" height="30" rx="15" fill-opacity="0.14"/>
    <rect x="556" y="176" width="140" height="30" rx="15" fill-opacity="0.1"/>
    <rect x="556" y="224" width="140" height="30" rx="15" fill-opacity="0.14"/>
    <rect x="556" y="272" width="140" height="30" rx="15" fill-opacity="0.1"/>
  </g>

  <text x="400" y="484" text-anchor="middle"
        font-family="ui-monospace, SFMono-Regular, Menlo, Consolas, monospace"
        font-size="19" letter-spacing="4" fill="#DDE6ED" fill-opacity="0.34">SAMPLE PROJECT</text>
</svg>
